{
  "source": "C:\\Users\\Peter\\Desktop\\stuff\\MIUN\\quantitative_research\\video_compression\\videos\\BVI-HD\\BVI-HD_CDVL_videos\\ORIG\\CarpetCircleFast_1920x1080_60fps.mp4",
  "output": "C:\\Users\\Peter\\Desktop\\stuff\\MIUN\\quantitative_research\\video_compression\\compressed_videos\\BVI-HD\\av1\\2.5\\CarpetCircleFast_1920x1080_60fps_av1.mkv",
  "codec": "av1",
  "ok": "Input #0, mov,mp4,m4a,3gp,3g2,mj2, from 'C:\\Users\\Peter\\Desktop\\stuff\\MIUN\\quantitative_research\\video_compression\\videos\\BVI-HD\\BVI-HD_CDVL_videos\\ORIG\\CarpetCircleFast_1920x1080_60fps.mp4':\n  Metadata:\n    major_brand     : isom\n    minor_version   : 512\n    compatible_brands: isomiso2avc1mp41\n    encoder         : Lavf54.28.101\n  Duration: 00:00:05.00, start: 0.000000, bitrate: 324759 kb/s\n  Stream #0:0[0x1](und): Video: h264 (High 4:4:4 Predictive) (avc1 / 0x31637661), yuv420p(progressive), 1920x1080, 324754 kb/s, 60 fps, 60 tbr, 60 tbn (default)\n    Metadata:\n      handler_name    : VideoHandler\n      vendor_id       : [0][0][0][0]\n[out#0/matroska @ 000002048610cd80] Codec AVOption b:a (set bitrate (in bits/s)) has not been used for any stream. The most likely reason is either wrong type (e.g. a video option with no video streams) or that it is a private option of some decoder which was not actually used for any stream.\nStream mapping:\n  Stream #0:0 -> #0:0 (h264 (native) -> av1 (libsvtav1))\nPress [q] to stop, [?] for help\nSvt[info]: -------------------------------------------\nSvt[info]: SVT [version]:\tSVT-AV1 Encoder Lib v3.1.0-19-g6ecfe8ec\nSvt[info]: SVT [build]  :\tGCC 15.2.0\t 64 bit\nSvt[info]: LIB Build date: Aug 17 2025 11:37:13\nSvt[info]: -------------------------------------------\nSvt[info]: Level of Parallelism: 5\nSvt[info]: Number of PPCS 93\nSvt[info]: [asm level on system : up to avx2]\nSvt[info]: [asm level selected : up to avx2]\nSvt[info]: -------------------------------------------\nSvt[info]: SVT [config]: main profile\ttier (auto)\tlevel (auto)\nSvt[info]: SVT [config]: width / height / fps numerator / fps denominator \t\t: 1920 / 1080 / 60 / 1\nSvt[info]: SVT [config]: bit-depth / color format \t\t\t\t\t: 8 / YUV420\nSvt[info]: SVT [config]: preset / tune / pred struct \t\t\t\t\t: 4 / PSNR / random access\nSvt[info]: SVT [config]: gop size / mini-gop size / key-frame type \t\t\t: 321 / 16 / key frame\nSvt[info]: SVT [config]: BRC mode / target bitrate (kbps)\t\t\t\t: VBR / 2500 \nSvt[info]: SVT [config]: AQ mode / Variance Boost \t\t\t\t\t: 2 / 0\nSvt[info]: SVT [config]: sharpness / luminance-based QP bias \t\t\t\t: 0 / 0\nSvt[info]: SVT [config]: QP scale compress strength \t\t\t\t\t: 0\nSvt[info]: -------------------------------------------\nOutput #0, matroska, to 'C:\\Users\\Peter\\Desktop\\stuff\\MIUN\\quantitative_research\\video_compression\\compressed_videos\\BVI-HD\\av1\\2.5\\CarpetCircleFast_1920x1080_60fps_av1.mkv':\n  Metadata:\n    major_brand     : isom\n    minor_version   : 512\n    compatible_brands: isomiso2avc1mp41\n    encoder         : Lavf62.3.100\n  Stream #0:0(und): Video: av1 (AV01 / 0x31305641), yuv420p(tv, progressive), 1920x1080, q=2-31, 2500 kb/s, 60 fps, 1k tbn (default)\n    Metadata:\n      encoder         : Lavc62.11.100 libsvtav1\n      handler_name    : VideoHandler\n      vendor_id       : [0][0][0][0]\n    Side data:\n      cpb: bitrate max/min/avg: 0/0/2500000 buffer size: 2500000 vbv_delay: N/A\nframe=    0 fps=0.0 q=0.0 size=       0KiB time=N/A bitrate=N/A speed=N/A elapsed=0:00:01.05    \nframe=    0 fps=0.0 q=0.0 size=       0KiB time=N/A bitrate=N/A speed=N/A elapsed=0:00:01.56    \nframe=    0 fps=0.0 q=0.0 size=       0KiB time=N/A bitrate=N/A speed=N/A elapsed=0:00:02.11    \nframe=    0 fps=0.0 q=0.0 size=       0KiB time=N/A bitrate=N/A speed=N/A elapsed=0:00:02.69    \nframe=    1 fps=0.3 q=17.0 size=       1KiB time=00:00:00.00 bitrate=N/A speed=   0x elapsed=0:00:03.19    \nframe=    5 fps=1.3 q=35.0 size=       1KiB time=00:00:00.06 bitrate=  85.4kbits/s speed=0.018x elapsed=0:00:03.71    \nframe=   12 fps=2.8 q=34.0 size=       1KiB time=00:00:00.18 bitrate=  31.1kbits/s speed=0.0433x elapsed=0:00:04.22    \nframe=   18 fps=3.8 q=33.0 size=       1KiB time=00:00:00.28 bitrate=  20.1kbits/s speed=0.0594x elapsed=0:00:04.76    \nframe=   24 fps=4.5 q=25.0 size=       1KiB time=00:00:00.38 bitrate=  14.9kbits/s speed=0.0724x elapsed=0:00:05.29    \nframe=   30 fps=5.1 q=28.0 size=       1KiB time=00:00:00.46 bitrate=  12.2kbits/s speed=0.0797x elapsed=0:00:05.85    \nframe=   37 fps=5.8 q=27.0 size=       1KiB time=00:00:00.60 bitrate=   9.5kbits/s speed=0.0938x elapsed=0:00:06.39    \nframe=   40 fps=5.8 q=23.0 size=       1KiB time=00:00:00.65 bitrate=   8.8kbits/s speed=0.0941x elapsed=0:00:06.90    \nframe=   44 fps=5.9 q=29.0 size=       1KiB time=00:00:00.71 bitrate=   7.9kbits/s speed=0.096x elapsed=0:00:07.46    \nframe=   50 fps=6.2 q=26.0 size=       1KiB time=00:00:00.81 bitrate=   7.0kbits/s speed=0.102x elapsed=0:00:08.01    \nframe=   54 fps=6.3 q=24.0 size=       1KiB time=00:00:00.88 bitrate=   6.4kbits/s speed=0.103x elapsed=0:00:08.54    \nframe=   59 fps=6.5 q=40.0 size=       1KiB time=00:00:00.96 bitrate=   5.9kbits/s speed=0.107x elapsed=0:00:09.06    \nframe=   65 fps=6.8 q=19.0 size=       1KiB time=00:00:01.06 bitrate=   5.3kbits/s speed=0.111x elapsed=0:00:09.61    \nframe=   72 fps=7.1 q=36.0 size=       1KiB time=00:00:01.18 bitrate=   4.8kbits/s speed=0.117x elapsed=0:00:10.13    \nframe=   79 fps=7.4 q=33.0 size=       1KiB time=00:00:01.30 bitrate=   4.4kbits/s speed=0.122x elapsed=0:00:10.66    \nframe=   84 fps=7.5 q=31.0 size=       1KiB time=00:00:01.38 bitrate=   4.1kbits/s speed=0.123x elapsed=0:00:11.20    \nframe=   90 fps=7.7 q=35.0 size=       1KiB time=00:00:01.48 bitrate=   3.8kbits/s speed=0.126x elapsed=0:00:11.72    \nframe=   96 fps=7.8 q=32.0 size=       1KiB time=00:00:01.58 bitrate=   3.6kbits/s speed=0.129x elapsed=0:00:12.25    \nframe=  102 fps=8.0 q=32.0 size=       1KiB time=00:00:01.68 bitrate=   3.4kbits/s speed=0.132x elapsed=0:00:12.76    \nframe=  107 fps=8.1 q=35.0 size=       1KiB time=00:00:01.76 bitrate=   3.2kbits/s speed=0.133x elapsed=0:00:13.28    \nframe=  114 fps=8.3 q=32.0 size=       1KiB time=00:00:01.88 bitrate=   3.0kbits/s speed=0.136x elapsed=0:00:13.81    \nframe=  119 fps=8.3 q=25.0 size=       1KiB time=00:00:01.95 bitrate=   2.9kbits/s speed=0.136x elapsed=0:00:14.32    \nframe=  124 fps=8.4 q=34.0 size=       1KiB time=00:00:02.05 bitrate=   2.8kbits/s speed=0.138x elapsed=0:00:14.83    \nframe=  131 fps=8.5 q=32.0 size=       1KiB time=00:00:02.16 bitrate=   2.6kbits/s speed=0.141x elapsed=0:00:15.38    \nframe=  135 fps=8.5 q=32.0 size=       1KiB time=00:00:02.23 bitrate=   2.6kbits/s speed=0.14x elapsed=0:00:15.92    \nframe=  141 fps=8.6 q=23.0 size=       1KiB time=00:00:02.31 bitrate=   2.5kbits/s speed=0.141x elapsed=0:00:16.44    \nframe=  150 fps=8.8 q=33.0 size=       1KiB time=00:00:02.48 bitrate=   2.3kbits/s speed=0.146x elapsed=0:00:17.00    \nframe=  155 fps=8.9 q=30.0 size=       1KiB time=00:00:02.56 bitrate=   2.2kbits/s speed=0.147x elapsed=0:00:17.51    \nframe=  163 fps=9.0 q=33.0 size=       1KiB time=00:00:02.70 bitrate=   2.1kbits/s speed=0.15x elapsed=0:00:18.03    \nframe=  168 fps=9.1 q=34.0 size=       1KiB time=00:00:02.78 bitrate=   2.0kbits/s speed=0.15x elapsed=0:00:18.54    \nframe=  176 fps=9.2 q=32.0 size=       1KiB time=00:00:02.91 bitrate=   2.0kbits/s speed=0.153x elapsed=0:00:19.06    \nframe=  183 fps=9.3 q=32.0 size=       1KiB time=00:00:03.03 bitrate=   1.9kbits/s speed=0.155x elapsed=0:00:19.60    \nframe=  190 fps=9.4 q=34.0 size=       1KiB time=00:00:03.13 bitrate=   1.8kbits/s speed=0.156x elapsed=0:00:20.11    \nframe=  199 fps=9.6 q=33.0 size=       1KiB time=00:00:03.30 bitrate=   1.7kbits/s speed=0.16x elapsed=0:00:20.67    \nframe=  207 fps=9.7 q=32.0 size=       1KiB time=00:00:03.43 bitrate=   1.7kbits/s speed=0.162x elapsed=0:00:21.23    \nframe=  213 fps=9.8 q=34.0 size=       1KiB time=00:00:03.53 bitrate=   1.6kbits/s speed=0.162x elapsed=0:00:21.77    \nframe=  221 fps=9.9 q=32.0 size=       1KiB time=00:00:03.66 bitrate=   1.6kbits/s speed=0.164x elapsed=0:00:22.30    \nframe=  229 fps= 10 q=34.0 size=       1KiB time=00:00:03.80 bitrate=   1.5kbits/s speed=0.167x elapsed=0:00:22.80    \nframe=  235 fps= 10 q=33.0 size=       1KiB time=00:00:03.90 bitrate=   1.5kbits/s speed=0.167x elapsed=0:00:23.32    \nframe=  245 fps= 10 q=33.0 size=       1KiB time=00:00:04.06 bitrate=   1.4kbits/s speed=0.17x elapsed=0:00:23.86    \nframe=  253 fps= 10 q=25.0 size=       1KiB time=00:00:04.20 bitrate=   1.4kbits/s speed=0.172x elapsed=0:00:24.36    \nframe=  261 fps= 10 q=32.0 size=       1KiB time=00:00:04.33 bitrate=   1.3kbits/s speed=0.174x elapsed=0:00:24.89    \nframe=  269 fps= 11 q=22.0 size=       1KiB time=00:00:04.46 bitrate=   1.3kbits/s speed=0.176x elapsed=0:00:25.41    \nframe=  277 fps= 11 q=27.0 size=       1KiB time=00:00:04.60 bitrate=   1.2kbits/s speed=0.177x elapsed=0:00:25.93    \nframe=  287 fps= 11 q=33.0 size=       1KiB time=00:00:04.76 bitrate=   1.2kbits/s speed=0.18x elapsed=0:00:26.46    \n[out#0/matroska @ 000002048610cd80] video:1381KiB audio:0KiB subtitle:0KiB other streams:0KiB global headers:0KiB muxing overhead: 0.150553%\nframe=  300 fps= 11 q=37.0 Lsize=    1383KiB time=00:00:04.98 bitrate=2273.6kbits/s speed=0.188x elapsed=0:00:26.57    \n",
  "seconds": 26.986019134521484,
  "probe_out": {}
}